<mxfile host="Electron" agent="Mozilla/5.0 (Windows NT 10.0; Win64; x64) AppleWebKit/537.36 (KHTML, like Gecko) draw.io/26.0.16 Chrome/132.0.6834.196 Electron/34.2.0 Safari/537.36" version="26.0.16">
  <diagram name="페이지-1" id="jSP0wqziFNxwSBOyULtl">
    <mxGraphModel dx="955" dy="859" grid="1" gridSize="10" guides="1" tooltips="1" connect="1" arrows="1" fold="1" page="1" pageScale="1" pageWidth="1169" pageHeight="827" math="0" shadow="0">
      <root>
        <mxCell id="0" />
        <mxCell id="1" parent="0" />
        <mxCell id="xfp7rdJCbzUIUuQa8CQr-93" value="rx" style="swimlane;whiteSpace=wrap;html=1;" vertex="1" parent="1">
          <mxGeometry x="120" width="430" height="730" as="geometry">
            <mxRectangle x="200" y="80" width="50" height="40" as="alternateBounds" />
          </mxGeometry>
        </mxCell>
        <mxCell id="xfp7rdJCbzUIUuQa8CQr-1" value="" style="group" vertex="1" connectable="0" parent="xfp7rdJCbzUIUuQa8CQr-93">
          <mxGeometry x="54" y="70" width="120" height="230" as="geometry" />
        </mxCell>
        <mxCell id="xfp7rdJCbzUIUuQa8CQr-2" style="edgeStyle=orthogonalEdgeStyle;rounded=0;orthogonalLoop=1;jettySize=auto;html=1;entryX=0.5;entryY=0;entryDx=0;entryDy=0;" edge="1" parent="xfp7rdJCbzUIUuQa8CQr-1" source="xfp7rdJCbzUIUuQa8CQr-3" target="xfp7rdJCbzUIUuQa8CQr-5">
          <mxGeometry relative="1" as="geometry" />
        </mxCell>
        <mxCell id="xfp7rdJCbzUIUuQa8CQr-3" value="idle" style="ellipse;whiteSpace=wrap;html=1;aspect=fixed;" vertex="1" parent="xfp7rdJCbzUIUuQa8CQr-1">
          <mxGeometry x="38" width="64.00090354216766" height="64.00090354216766" as="geometry" />
        </mxCell>
        <mxCell id="xfp7rdJCbzUIUuQa8CQr-4" style="edgeStyle=orthogonalEdgeStyle;rounded=0;orthogonalLoop=1;jettySize=auto;html=1;entryX=0.5;entryY=0;entryDx=0;entryDy=0;" edge="1" parent="xfp7rdJCbzUIUuQa8CQr-1" source="xfp7rdJCbzUIUuQa8CQr-5" target="xfp7rdJCbzUIUuQa8CQr-8">
          <mxGeometry relative="1" as="geometry" />
        </mxCell>
        <mxCell id="xfp7rdJCbzUIUuQa8CQr-5" value="tx = 1&lt;div&gt;tc = 0&lt;/div&gt;" style="rounded=0;whiteSpace=wrap;html=1;" vertex="1" parent="xfp7rdJCbzUIUuQa8CQr-1">
          <mxGeometry x="20" y="90.00350908483414" width="100" height="36.14168670616526" as="geometry" />
        </mxCell>
        <mxCell id="xfp7rdJCbzUIUuQa8CQr-6" style="edgeStyle=orthogonalEdgeStyle;rounded=0;orthogonalLoop=1;jettySize=auto;html=1;entryX=0;entryY=0.5;entryDx=0;entryDy=0;" edge="1" parent="xfp7rdJCbzUIUuQa8CQr-1" source="xfp7rdJCbzUIUuQa8CQr-8" target="xfp7rdJCbzUIUuQa8CQr-3">
          <mxGeometry relative="1" as="geometry">
            <Array as="points">
              <mxPoint y="183" />
              <mxPoint y="32" />
            </Array>
          </mxGeometry>
        </mxCell>
        <mxCell id="xfp7rdJCbzUIUuQa8CQr-7" value="1" style="edgeLabel;html=1;align=center;verticalAlign=middle;resizable=0;points=[];" vertex="1" connectable="0" parent="xfp7rdJCbzUIUuQa8CQr-6">
          <mxGeometry x="-0.8898" y="-1" relative="1" as="geometry">
            <mxPoint y="8" as="offset" />
          </mxGeometry>
        </mxCell>
        <mxCell id="xfp7rdJCbzUIUuQa8CQr-8" value="trigger" style="rhombus;whiteSpace=wrap;html=1;" vertex="1" parent="xfp7rdJCbzUIUuQa8CQr-1">
          <mxGeometry x="20" y="160.00289161729341" width="100" height="45.17710838270658" as="geometry" />
        </mxCell>
        <mxCell id="xfp7rdJCbzUIUuQa8CQr-9" value="" style="group" vertex="1" connectable="0" parent="xfp7rdJCbzUIUuQa8CQr-93">
          <mxGeometry x="54" y="400" width="120" height="230" as="geometry" />
        </mxCell>
        <mxCell id="xfp7rdJCbzUIUuQa8CQr-10" style="edgeStyle=orthogonalEdgeStyle;rounded=0;orthogonalLoop=1;jettySize=auto;html=1;entryX=0.5;entryY=0;entryDx=0;entryDy=0;" edge="1" parent="xfp7rdJCbzUIUuQa8CQr-9" source="xfp7rdJCbzUIUuQa8CQr-11" target="xfp7rdJCbzUIUuQa8CQr-13">
          <mxGeometry relative="1" as="geometry" />
        </mxCell>
        <mxCell id="xfp7rdJCbzUIUuQa8CQr-11" value="start" style="ellipse;whiteSpace=wrap;html=1;aspect=fixed;" vertex="1" parent="xfp7rdJCbzUIUuQa8CQr-9">
          <mxGeometry x="38" width="64.00090354216766" height="64.00090354216766" as="geometry" />
        </mxCell>
        <mxCell id="xfp7rdJCbzUIUuQa8CQr-12" style="edgeStyle=orthogonalEdgeStyle;rounded=0;orthogonalLoop=1;jettySize=auto;html=1;entryX=0.5;entryY=0;entryDx=0;entryDy=0;" edge="1" parent="xfp7rdJCbzUIUuQa8CQr-9" source="xfp7rdJCbzUIUuQa8CQr-13" target="xfp7rdJCbzUIUuQa8CQr-16">
          <mxGeometry relative="1" as="geometry" />
        </mxCell>
        <mxCell id="xfp7rdJCbzUIUuQa8CQr-13" value="tx = 0&lt;div&gt;count_tick = 0&lt;/div&gt;" style="rounded=0;whiteSpace=wrap;html=1;" vertex="1" parent="xfp7rdJCbzUIUuQa8CQr-9">
          <mxGeometry x="20" y="90.00350908483414" width="100" height="36.14168670616526" as="geometry" />
        </mxCell>
        <mxCell id="xfp7rdJCbzUIUuQa8CQr-14" style="edgeStyle=orthogonalEdgeStyle;rounded=0;orthogonalLoop=1;jettySize=auto;html=1;entryX=0;entryY=0.5;entryDx=0;entryDy=0;" edge="1" parent="xfp7rdJCbzUIUuQa8CQr-9" source="xfp7rdJCbzUIUuQa8CQr-16" target="xfp7rdJCbzUIUuQa8CQr-11">
          <mxGeometry relative="1" as="geometry">
            <Array as="points">
              <mxPoint y="183" />
              <mxPoint y="32" />
            </Array>
          </mxGeometry>
        </mxCell>
        <mxCell id="xfp7rdJCbzUIUuQa8CQr-15" value="0" style="edgeLabel;html=1;align=center;verticalAlign=middle;resizable=0;points=[];" vertex="1" connectable="0" parent="xfp7rdJCbzUIUuQa8CQr-14">
          <mxGeometry x="-0.8898" y="-1" relative="1" as="geometry">
            <mxPoint y="8" as="offset" />
          </mxGeometry>
        </mxCell>
        <mxCell id="xfp7rdJCbzUIUuQa8CQr-16" value="tick" style="rhombus;whiteSpace=wrap;html=1;" vertex="1" parent="xfp7rdJCbzUIUuQa8CQr-9">
          <mxGeometry x="20" y="160.00289161729341" width="100" height="45.17710838270658" as="geometry" />
        </mxCell>
        <mxCell id="xfp7rdJCbzUIUuQa8CQr-17" style="edgeStyle=orthogonalEdgeStyle;rounded=0;orthogonalLoop=1;jettySize=auto;html=1;entryX=0.5;entryY=0;entryDx=0;entryDy=0;" edge="1" parent="xfp7rdJCbzUIUuQa8CQr-93" source="xfp7rdJCbzUIUuQa8CQr-8" target="xfp7rdJCbzUIUuQa8CQr-41">
          <mxGeometry relative="1" as="geometry">
            <mxPoint x="114.00045177108382" y="300" as="targetPoint" />
          </mxGeometry>
        </mxCell>
        <mxCell id="xfp7rdJCbzUIUuQa8CQr-18" value="0" style="edgeLabel;html=1;align=center;verticalAlign=middle;resizable=0;points=[];" vertex="1" connectable="0" parent="xfp7rdJCbzUIUuQa8CQr-17">
          <mxGeometry x="0.4426" y="1" relative="1" as="geometry">
            <mxPoint x="-9" y="-17" as="offset" />
          </mxGeometry>
        </mxCell>
        <mxCell id="xfp7rdJCbzUIUuQa8CQr-21" value="" style="group" vertex="1" connectable="0" parent="xfp7rdJCbzUIUuQa8CQr-93">
          <mxGeometry x="248" y="440" width="120" height="230" as="geometry" />
        </mxCell>
        <mxCell id="xfp7rdJCbzUIUuQa8CQr-22" style="edgeStyle=orthogonalEdgeStyle;rounded=0;orthogonalLoop=1;jettySize=auto;html=1;entryX=0.5;entryY=0;entryDx=0;entryDy=0;" edge="1" parent="xfp7rdJCbzUIUuQa8CQr-21" source="xfp7rdJCbzUIUuQa8CQr-23" target="xfp7rdJCbzUIUuQa8CQr-25">
          <mxGeometry relative="1" as="geometry" />
        </mxCell>
        <mxCell id="xfp7rdJCbzUIUuQa8CQr-23" value="STOP" style="ellipse;whiteSpace=wrap;html=1;aspect=fixed;" vertex="1" parent="xfp7rdJCbzUIUuQa8CQr-21">
          <mxGeometry x="38" width="64.00090354216766" height="64.00090354216766" as="geometry" />
        </mxCell>
        <mxCell id="xfp7rdJCbzUIUuQa8CQr-24" style="edgeStyle=orthogonalEdgeStyle;rounded=0;orthogonalLoop=1;jettySize=auto;html=1;entryX=0.5;entryY=0;entryDx=0;entryDy=0;" edge="1" parent="xfp7rdJCbzUIUuQa8CQr-21" source="xfp7rdJCbzUIUuQa8CQr-25" target="xfp7rdJCbzUIUuQa8CQr-28">
          <mxGeometry relative="1" as="geometry" />
        </mxCell>
        <mxCell id="xfp7rdJCbzUIUuQa8CQr-25" value="tx = 1" style="rounded=0;whiteSpace=wrap;html=1;" vertex="1" parent="xfp7rdJCbzUIUuQa8CQr-21">
          <mxGeometry x="20" y="90.00350908483414" width="100" height="36.14168670616526" as="geometry" />
        </mxCell>
        <mxCell id="xfp7rdJCbzUIUuQa8CQr-26" style="edgeStyle=orthogonalEdgeStyle;rounded=0;orthogonalLoop=1;jettySize=auto;html=1;entryX=0;entryY=0.5;entryDx=0;entryDy=0;" edge="1" parent="xfp7rdJCbzUIUuQa8CQr-21" source="xfp7rdJCbzUIUuQa8CQr-28" target="xfp7rdJCbzUIUuQa8CQr-23">
          <mxGeometry relative="1" as="geometry">
            <Array as="points">
              <mxPoint y="183" />
              <mxPoint y="32" />
            </Array>
          </mxGeometry>
        </mxCell>
        <mxCell id="xfp7rdJCbzUIUuQa8CQr-27" value="0" style="edgeLabel;html=1;align=center;verticalAlign=middle;resizable=0;points=[];" vertex="1" connectable="0" parent="xfp7rdJCbzUIUuQa8CQr-26">
          <mxGeometry x="-0.8898" y="-1" relative="1" as="geometry">
            <mxPoint y="8" as="offset" />
          </mxGeometry>
        </mxCell>
        <mxCell id="xfp7rdJCbzUIUuQa8CQr-28" value="tick" style="rhombus;whiteSpace=wrap;html=1;" vertex="1" parent="xfp7rdJCbzUIUuQa8CQr-21">
          <mxGeometry x="20" y="160.00289161729341" width="100" height="45.17710838270658" as="geometry" />
        </mxCell>
        <mxCell id="xfp7rdJCbzUIUuQa8CQr-29" value="" style="group" vertex="1" connectable="0" parent="xfp7rdJCbzUIUuQa8CQr-93">
          <mxGeometry x="248" y="70" width="120" height="230" as="geometry" />
        </mxCell>
        <mxCell id="xfp7rdJCbzUIUuQa8CQr-30" style="edgeStyle=orthogonalEdgeStyle;rounded=0;orthogonalLoop=1;jettySize=auto;html=1;entryX=0.5;entryY=0;entryDx=0;entryDy=0;" edge="1" parent="xfp7rdJCbzUIUuQa8CQr-29" source="xfp7rdJCbzUIUuQa8CQr-31" target="xfp7rdJCbzUIUuQa8CQr-33">
          <mxGeometry relative="1" as="geometry" />
        </mxCell>
        <mxCell id="xfp7rdJCbzUIUuQa8CQr-31" value="RUN" style="ellipse;whiteSpace=wrap;html=1;aspect=fixed;" vertex="1" parent="xfp7rdJCbzUIUuQa8CQr-29">
          <mxGeometry x="38" width="64.00090354216766" height="64.00090354216766" as="geometry" />
        </mxCell>
        <mxCell id="xfp7rdJCbzUIUuQa8CQr-33" value="&lt;div&gt;&lt;span style=&quot;background-color: transparent; color: light-dark(rgb(0, 0, 0), rgb(255, 255, 255));&quot;&gt;DATA[count]&lt;/span&gt;&lt;/div&gt;&lt;div&gt;count = count + 1&lt;/div&gt;" style="rounded=0;whiteSpace=wrap;html=1;" vertex="1" parent="xfp7rdJCbzUIUuQa8CQr-29">
          <mxGeometry x="20" y="80" width="100" height="30" as="geometry" />
        </mxCell>
        <mxCell id="xfp7rdJCbzUIUuQa8CQr-46" value="tc" style="rhombus;whiteSpace=wrap;html=1;" vertex="1" parent="xfp7rdJCbzUIUuQa8CQr-29">
          <mxGeometry x="20" y="184.8228916172934" width="100" height="45.17710838270658" as="geometry" />
        </mxCell>
        <mxCell id="xfp7rdJCbzUIUuQa8CQr-32" style="edgeStyle=orthogonalEdgeStyle;rounded=0;orthogonalLoop=1;jettySize=auto;html=1;exitX=0.5;exitY=1;exitDx=0;exitDy=0;entryX=0.5;entryY=0;entryDx=0;entryDy=0;" edge="1" parent="xfp7rdJCbzUIUuQa8CQr-29" source="xfp7rdJCbzUIUuQa8CQr-129" target="xfp7rdJCbzUIUuQa8CQr-46">
          <mxGeometry relative="1" as="geometry">
            <mxPoint x="70" y="150" as="targetPoint" />
          </mxGeometry>
        </mxCell>
        <mxCell id="xfp7rdJCbzUIUuQa8CQr-136" value="1" style="edgeLabel;html=1;align=center;verticalAlign=middle;resizable=0;points=[];" vertex="1" connectable="0" parent="xfp7rdJCbzUIUuQa8CQr-32">
          <mxGeometry x="-0.4387" y="1" relative="1" as="geometry">
            <mxPoint x="5" as="offset" />
          </mxGeometry>
        </mxCell>
        <mxCell id="xfp7rdJCbzUIUuQa8CQr-133" value="" style="edgeStyle=orthogonalEdgeStyle;rounded=0;orthogonalLoop=1;jettySize=auto;html=1;exitX=0.5;exitY=1;exitDx=0;exitDy=0;entryX=0.5;entryY=0;entryDx=0;entryDy=0;" edge="1" parent="xfp7rdJCbzUIUuQa8CQr-29" source="xfp7rdJCbzUIUuQa8CQr-33" target="xfp7rdJCbzUIUuQa8CQr-129">
          <mxGeometry relative="1" as="geometry">
            <mxPoint x="298" y="190" as="sourcePoint" />
            <mxPoint x="298" y="265" as="targetPoint" />
          </mxGeometry>
        </mxCell>
        <mxCell id="xfp7rdJCbzUIUuQa8CQr-129" value="tick" style="rhombus;whiteSpace=wrap;html=1;" vertex="1" parent="xfp7rdJCbzUIUuQa8CQr-29">
          <mxGeometry x="20" y="120.00289161729347" width="100" height="45.17710838270658" as="geometry" />
        </mxCell>
        <mxCell id="xfp7rdJCbzUIUuQa8CQr-37" style="edgeStyle=orthogonalEdgeStyle;rounded=0;orthogonalLoop=1;jettySize=auto;html=1;entryX=0.5;entryY=0;entryDx=0;entryDy=0;exitX=0.5;exitY=1;exitDx=0;exitDy=0;" edge="1" parent="xfp7rdJCbzUIUuQa8CQr-93" source="xfp7rdJCbzUIUuQa8CQr-52" target="xfp7rdJCbzUIUuQa8CQr-3">
          <mxGeometry relative="1" as="geometry">
            <Array as="points">
              <mxPoint x="318" y="720" />
              <mxPoint x="24" y="720" />
              <mxPoint x="24" y="50" />
              <mxPoint x="124" y="50" />
            </Array>
            <mxPoint x="295" y="680" as="sourcePoint" />
          </mxGeometry>
        </mxCell>
        <mxCell id="xfp7rdJCbzUIUuQa8CQr-38" value="8" style="edgeLabel;html=1;align=center;verticalAlign=middle;resizable=0;points=[];" vertex="1" connectable="0" parent="xfp7rdJCbzUIUuQa8CQr-37">
          <mxGeometry x="-0.9728" y="1" relative="1" as="geometry">
            <mxPoint x="-8" as="offset" />
          </mxGeometry>
        </mxCell>
        <mxCell id="xfp7rdJCbzUIUuQa8CQr-39" style="edgeStyle=orthogonalEdgeStyle;rounded=0;orthogonalLoop=1;jettySize=auto;html=1;entryX=0.5;entryY=0;entryDx=0;entryDy=0;" edge="1" parent="xfp7rdJCbzUIUuQa8CQr-93" source="xfp7rdJCbzUIUuQa8CQr-36" target="xfp7rdJCbzUIUuQa8CQr-23">
          <mxGeometry relative="1" as="geometry" />
        </mxCell>
        <mxCell id="xfp7rdJCbzUIUuQa8CQr-40" value="7" style="edgeLabel;html=1;align=center;verticalAlign=middle;resizable=0;points=[];" vertex="1" connectable="0" parent="xfp7rdJCbzUIUuQa8CQr-39">
          <mxGeometry x="-0.451" relative="1" as="geometry">
            <mxPoint x="15" y="1" as="offset" />
          </mxGeometry>
        </mxCell>
        <mxCell id="xfp7rdJCbzUIUuQa8CQr-42" style="edgeStyle=orthogonalEdgeStyle;rounded=0;orthogonalLoop=1;jettySize=auto;html=1;entryX=0.5;entryY=0;entryDx=0;entryDy=0;" edge="1" parent="xfp7rdJCbzUIUuQa8CQr-93" source="xfp7rdJCbzUIUuQa8CQr-41" target="xfp7rdJCbzUIUuQa8CQr-11">
          <mxGeometry relative="1" as="geometry" />
        </mxCell>
        <mxCell id="xfp7rdJCbzUIUuQa8CQr-45" value="8" style="edgeLabel;html=1;align=center;verticalAlign=middle;resizable=0;points=[];" vertex="1" connectable="0" parent="xfp7rdJCbzUIUuQa8CQr-42">
          <mxGeometry x="-0.5844" relative="1" as="geometry">
            <mxPoint x="5" y="-5" as="offset" />
          </mxGeometry>
        </mxCell>
        <mxCell id="xfp7rdJCbzUIUuQa8CQr-41" value="tc" style="rhombus;whiteSpace=wrap;html=1;" vertex="1" parent="xfp7rdJCbzUIUuQa8CQr-93">
          <mxGeometry x="74" y="321.0028916172934" width="100" height="45.17710838270658" as="geometry" />
        </mxCell>
        <mxCell id="xfp7rdJCbzUIUuQa8CQr-36" value="count" style="rhombus;whiteSpace=wrap;html=1;" vertex="1" parent="xfp7rdJCbzUIUuQa8CQr-93">
          <mxGeometry x="268" y="370.0028916172934" width="100" height="45.17710838270658" as="geometry" />
        </mxCell>
        <mxCell id="xfp7rdJCbzUIUuQa8CQr-34" style="edgeStyle=orthogonalEdgeStyle;rounded=0;orthogonalLoop=1;jettySize=auto;html=1;entryX=0;entryY=0.5;entryDx=0;entryDy=0;" edge="1" parent="xfp7rdJCbzUIUuQa8CQr-93" source="xfp7rdJCbzUIUuQa8CQr-36" target="xfp7rdJCbzUIUuQa8CQr-31">
          <mxGeometry relative="1" as="geometry">
            <Array as="points">
              <mxPoint x="248" y="393" />
              <mxPoint x="248" y="102" />
            </Array>
          </mxGeometry>
        </mxCell>
        <mxCell id="xfp7rdJCbzUIUuQa8CQr-126" style="edgeStyle=orthogonalEdgeStyle;rounded=0;orthogonalLoop=1;jettySize=auto;html=1;entryX=0.5;entryY=0;entryDx=0;entryDy=0;" edge="1" parent="xfp7rdJCbzUIUuQa8CQr-93" source="xfp7rdJCbzUIUuQa8CQr-51" target="xfp7rdJCbzUIUuQa8CQr-121">
          <mxGeometry relative="1" as="geometry">
            <Array as="points">
              <mxPoint x="124" y="695" />
              <mxPoint x="226" y="695" />
            </Array>
          </mxGeometry>
        </mxCell>
        <mxCell id="xfp7rdJCbzUIUuQa8CQr-135" value="16" style="edgeLabel;html=1;align=center;verticalAlign=middle;resizable=0;points=[];" vertex="1" connectable="0" parent="xfp7rdJCbzUIUuQa8CQr-126">
          <mxGeometry x="-0.5724" y="1" relative="1" as="geometry">
            <mxPoint y="-14" as="offset" />
          </mxGeometry>
        </mxCell>
        <mxCell id="xfp7rdJCbzUIUuQa8CQr-51" value="tc" style="rhombus;whiteSpace=wrap;html=1;" vertex="1" parent="xfp7rdJCbzUIUuQa8CQr-93">
          <mxGeometry x="74" y="630.0028916172935" width="100" height="45.17710838270658" as="geometry" />
        </mxCell>
        <mxCell id="xfp7rdJCbzUIUuQa8CQr-81" style="edgeStyle=orthogonalEdgeStyle;rounded=0;orthogonalLoop=1;jettySize=auto;html=1;exitX=1;exitY=0.5;exitDx=0;exitDy=0;entryX=0.5;entryY=1;entryDx=0;entryDy=0;" edge="1" parent="xfp7rdJCbzUIUuQa8CQr-93" source="xfp7rdJCbzUIUuQa8CQr-52" target="xfp7rdJCbzUIUuQa8CQr-83">
          <mxGeometry relative="1" as="geometry">
            <mxPoint x="393" y="520" as="targetPoint" />
          </mxGeometry>
        </mxCell>
        <mxCell id="xfp7rdJCbzUIUuQa8CQr-52" value="tc" style="rhombus;whiteSpace=wrap;html=1;" vertex="1" parent="xfp7rdJCbzUIUuQa8CQr-93">
          <mxGeometry x="268" y="670.0028916172935" width="100" height="45.17710838270658" as="geometry" />
        </mxCell>
        <mxCell id="xfp7rdJCbzUIUuQa8CQr-53" style="edgeStyle=orthogonalEdgeStyle;rounded=0;orthogonalLoop=1;jettySize=auto;html=1;entryX=0.5;entryY=0;entryDx=0;entryDy=0;" edge="1" parent="xfp7rdJCbzUIUuQa8CQr-93" source="xfp7rdJCbzUIUuQa8CQr-16" target="xfp7rdJCbzUIUuQa8CQr-51">
          <mxGeometry relative="1" as="geometry" />
        </mxCell>
        <mxCell id="xfp7rdJCbzUIUuQa8CQr-82" style="edgeStyle=orthogonalEdgeStyle;rounded=0;orthogonalLoop=1;jettySize=auto;html=1;entryX=0.5;entryY=0;entryDx=0;entryDy=0;" edge="1" parent="xfp7rdJCbzUIUuQa8CQr-93" source="xfp7rdJCbzUIUuQa8CQr-28" target="xfp7rdJCbzUIUuQa8CQr-52">
          <mxGeometry relative="1" as="geometry" />
        </mxCell>
        <mxCell id="xfp7rdJCbzUIUuQa8CQr-99" style="edgeStyle=orthogonalEdgeStyle;rounded=0;orthogonalLoop=1;jettySize=auto;html=1;entryX=1;entryY=0.5;entryDx=0;entryDy=0;" edge="1" parent="xfp7rdJCbzUIUuQa8CQr-93" source="xfp7rdJCbzUIUuQa8CQr-83" target="xfp7rdJCbzUIUuQa8CQr-28">
          <mxGeometry relative="1" as="geometry">
            <Array as="points">
              <mxPoint x="388" y="623" />
            </Array>
          </mxGeometry>
        </mxCell>
        <mxCell id="xfp7rdJCbzUIUuQa8CQr-83" value="tc++" style="rounded=0;whiteSpace=wrap;html=1;" vertex="1" parent="xfp7rdJCbzUIUuQa8CQr-93">
          <mxGeometry x="366" y="638" width="44" height="20" as="geometry" />
        </mxCell>
        <mxCell id="xfp7rdJCbzUIUuQa8CQr-43" style="edgeStyle=orthogonalEdgeStyle;rounded=0;orthogonalLoop=1;jettySize=auto;html=1;entryX=0.5;entryY=1;entryDx=0;entryDy=0;" edge="1" parent="xfp7rdJCbzUIUuQa8CQr-93" source="xfp7rdJCbzUIUuQa8CQr-41" target="xfp7rdJCbzUIUuQa8CQr-60">
          <mxGeometry relative="1" as="geometry">
            <Array as="points">
              <mxPoint x="194" y="344" />
            </Array>
          </mxGeometry>
        </mxCell>
        <mxCell id="xfp7rdJCbzUIUuQa8CQr-59" style="edgeStyle=orthogonalEdgeStyle;rounded=0;orthogonalLoop=1;jettySize=auto;html=1;entryX=0.5;entryY=1;entryDx=0;entryDy=0;" edge="1" parent="xfp7rdJCbzUIUuQa8CQr-93" source="xfp7rdJCbzUIUuQa8CQr-51" target="xfp7rdJCbzUIUuQa8CQr-62">
          <mxGeometry relative="1" as="geometry">
            <mxPoint x="230" y="650" as="targetPoint" />
            <Array as="points">
              <mxPoint x="194" y="653" />
            </Array>
          </mxGeometry>
        </mxCell>
        <mxCell id="xfp7rdJCbzUIUuQa8CQr-85" value="else" style="edgeLabel;html=1;align=center;verticalAlign=middle;resizable=0;points=[];" vertex="1" connectable="0" parent="xfp7rdJCbzUIUuQa8CQr-59">
          <mxGeometry x="-0.7686" y="3" relative="1" as="geometry">
            <mxPoint x="-6" y="-6" as="offset" />
          </mxGeometry>
        </mxCell>
        <mxCell id="xfp7rdJCbzUIUuQa8CQr-97" style="edgeStyle=orthogonalEdgeStyle;rounded=0;orthogonalLoop=1;jettySize=auto;html=1;entryX=1;entryY=0.5;entryDx=0;entryDy=0;" edge="1" parent="xfp7rdJCbzUIUuQa8CQr-93" source="xfp7rdJCbzUIUuQa8CQr-62" target="xfp7rdJCbzUIUuQa8CQr-16">
          <mxGeometry relative="1" as="geometry">
            <Array as="points">
              <mxPoint x="194" y="583" />
            </Array>
          </mxGeometry>
        </mxCell>
        <mxCell id="xfp7rdJCbzUIUuQa8CQr-98" style="edgeStyle=orthogonalEdgeStyle;rounded=0;orthogonalLoop=1;jettySize=auto;html=1;entryX=1;entryY=0.5;entryDx=0;entryDy=0;exitX=0.5;exitY=0;exitDx=0;exitDy=0;" edge="1" parent="xfp7rdJCbzUIUuQa8CQr-93" source="xfp7rdJCbzUIUuQa8CQr-60" target="xfp7rdJCbzUIUuQa8CQr-8">
          <mxGeometry relative="1" as="geometry">
            <Array as="points">
              <mxPoint x="194" y="253" />
            </Array>
          </mxGeometry>
        </mxCell>
        <mxCell id="xfp7rdJCbzUIUuQa8CQr-60" value="tc++" style="rounded=0;whiteSpace=wrap;html=1;" vertex="1" parent="xfp7rdJCbzUIUuQa8CQr-93">
          <mxGeometry x="178" y="280" width="32" height="20" as="geometry" />
        </mxCell>
        <mxCell id="xfp7rdJCbzUIUuQa8CQr-62" value="tc++" style="rounded=0;whiteSpace=wrap;html=1;" vertex="1" parent="xfp7rdJCbzUIUuQa8CQr-93">
          <mxGeometry x="178" y="610" width="32" height="20" as="geometry" />
        </mxCell>
        <mxCell id="xfp7rdJCbzUIUuQa8CQr-132" style="edgeStyle=orthogonalEdgeStyle;rounded=0;orthogonalLoop=1;jettySize=auto;html=1;entryX=1;entryY=0.5;entryDx=0;entryDy=0;" edge="1" parent="xfp7rdJCbzUIUuQa8CQr-93" source="xfp7rdJCbzUIUuQa8CQr-102" target="xfp7rdJCbzUIUuQa8CQr-129">
          <mxGeometry relative="1" as="geometry">
            <Array as="points">
              <mxPoint x="394" y="213" />
              <mxPoint x="368" y="213" />
            </Array>
          </mxGeometry>
        </mxCell>
        <mxCell id="xfp7rdJCbzUIUuQa8CQr-102" value="tc++" style="rounded=0;whiteSpace=wrap;html=1;" vertex="1" parent="xfp7rdJCbzUIUuQa8CQr-93">
          <mxGeometry x="378" y="230" width="32" height="20" as="geometry" />
        </mxCell>
        <mxCell id="xfp7rdJCbzUIUuQa8CQr-109" style="edgeStyle=orthogonalEdgeStyle;rounded=0;orthogonalLoop=1;jettySize=auto;html=1;entryX=0.5;entryY=0;entryDx=0;entryDy=0;" edge="1" parent="xfp7rdJCbzUIUuQa8CQr-93" source="xfp7rdJCbzUIUuQa8CQr-117" target="xfp7rdJCbzUIUuQa8CQr-36">
          <mxGeometry relative="1" as="geometry" />
        </mxCell>
        <mxCell id="xfp7rdJCbzUIUuQa8CQr-117" value="tc=0" style="rounded=0;whiteSpace=wrap;html=1;" vertex="1" parent="xfp7rdJCbzUIUuQa8CQr-93">
          <mxGeometry x="302" y="330.00000000000006" width="32" height="20" as="geometry" />
        </mxCell>
        <mxCell id="xfp7rdJCbzUIUuQa8CQr-118" value="" style="edgeStyle=orthogonalEdgeStyle;rounded=0;orthogonalLoop=1;jettySize=auto;html=1;entryX=0.5;entryY=0;entryDx=0;entryDy=0;" edge="1" parent="xfp7rdJCbzUIUuQa8CQr-93" source="xfp7rdJCbzUIUuQa8CQr-46" target="xfp7rdJCbzUIUuQa8CQr-117">
          <mxGeometry relative="1" as="geometry">
            <mxPoint x="328" y="285" as="sourcePoint" />
            <mxPoint x="328" y="330" as="targetPoint" />
          </mxGeometry>
        </mxCell>
        <mxCell id="xfp7rdJCbzUIUuQa8CQr-119" value="16" style="edgeLabel;html=1;align=center;verticalAlign=middle;resizable=0;points=[];" vertex="1" connectable="0" parent="xfp7rdJCbzUIUuQa8CQr-118">
          <mxGeometry x="-0.4025" y="-2" relative="1" as="geometry">
            <mxPoint x="13" y="-9" as="offset" />
          </mxGeometry>
        </mxCell>
        <mxCell id="xfp7rdJCbzUIUuQa8CQr-127" style="edgeStyle=orthogonalEdgeStyle;rounded=0;orthogonalLoop=1;jettySize=auto;html=1;entryX=0.5;entryY=0;entryDx=0;entryDy=0;" edge="1" parent="xfp7rdJCbzUIUuQa8CQr-93" source="xfp7rdJCbzUIUuQa8CQr-121" target="xfp7rdJCbzUIUuQa8CQr-31">
          <mxGeometry relative="1" as="geometry">
            <mxPoint x="226" y="80" as="targetPoint" />
            <Array as="points">
              <mxPoint x="226" y="50" />
              <mxPoint x="318" y="50" />
            </Array>
          </mxGeometry>
        </mxCell>
        <mxCell id="xfp7rdJCbzUIUuQa8CQr-121" value="tc=0" style="rounded=0;whiteSpace=wrap;html=1;direction=west;" vertex="1" parent="xfp7rdJCbzUIUuQa8CQr-93">
          <mxGeometry x="210" y="655.18" width="32" height="20" as="geometry" />
        </mxCell>
        <mxCell id="xfp7rdJCbzUIUuQa8CQr-131" style="edgeStyle=orthogonalEdgeStyle;rounded=0;orthogonalLoop=1;jettySize=auto;html=1;entryX=0.5;entryY=1;entryDx=0;entryDy=0;" edge="1" parent="xfp7rdJCbzUIUuQa8CQr-93" source="xfp7rdJCbzUIUuQa8CQr-46" target="xfp7rdJCbzUIUuQa8CQr-102">
          <mxGeometry relative="1" as="geometry" />
        </mxCell>
      </root>
    </mxGraphModel>
  </diagram>
</mxfile>
